<svg height="50" viewBox="0 0 200 50.000001" width="200" xmlns="http://www.w3.org/2000/svg">
  <path d="m21.858422 37.2332c-.49776-.497757-.753347-7.846881-.342261-9.841189.296038-1.436182.974899-1.506536 1.30741-.13549.49085 2.023895.229373 9.562113-.346953 10.002628-.284639.217562-.378632.213618-.618196-.02594zm3.191325-.05651c-.237108-.150392-.399152-1.385796-.575076-4.384304-.201816-3.439848.08254-8.944115.495473-9.591553.224324-.351686.491521-.391622.726427-.108571.510842.615519.746649 8.462493.360638 12.000323-.225165 2.063627-.416321 2.459053-1.007462 2.084105zm2.987971-.113142c-.247078-.476031-.497284-4.35844-.497284-7.716447 0-3.358005.250206-7.240415.497284-7.716442.08519-.164101.247766-.231846.488954-.203745.429411.05003.468766.215488.700425 2.944587.283535 3.340295.151096 9.960395-.246185 12.305389-.07862.464015-.148436.554774-.45424.5904-.241188.02809-.403767-.03965-.488954-.203742zm3.259104.05677c-.3149-.379432-.498185-3.195269-.492694-7.569475.0059-4.561616.184161-7.11014.521458-7.447437.253784-.253787.743138-.08096.82535.291502.539928 2.445964.585675 10.167989.08219 13.87796-.125086.921672-.55318 1.309133-.936343.84745zm2.995272.003c-.637372-.793569-.649553-15.783606-.01377-16.97864.146991-.276291.565888-.313546.763666-.06791.169524.210521.394876 2.782471.581638 6.638129.173707 3.586075-.08372 8.937176-.49748 10.340511-.08143.276248-.630776.320977-.834028.06792zm3.479281-.03618c-.197515-.107301-.426726-.389028-.509354-.626062-.103496-.296899-.150238-3.045754-.150238-8.836468 0-7.089224.03128-8.480355.199733-8.883523.165997-.397277.36675-.554557 1.188504-.931124 1.288252-.590339 2.1237-.755603 3.813916-.75444 1.811129.0013 3.295825.35974 4.898797 1.18287.994747.510809 1.485256.880814 2.47367 1.865971 1.025287 1.021921 1.340272 1.443729 1.870706 2.505165.350803.701987.702618 1.533648.781813 1.848138l.143981.571795 1.264341-.06613c1.027769-.05376 1.439016-.01309 2.197862.217416 2.275906.691285 3.875573 2.521667 4.283668 4.901491.547879 3.194994-1.772615 6.45318-5.036887 7.072235-.448562.08507-3.8862.13654-8.896219.133205-6.832317-.0046-8.223784-.03729-8.524293-.200536zm-19.101431-.50713c-.462196-.567957-.669171-6.525991-.318852-9.178927.166855-1.263613.217753-1.417524.513255-1.552164.540099-.246092.691815.0668.938791 1.936154.173944 1.31665.206465 2.292555.144849 4.346533-.07021 2.340961-.149634 3.143246-.426743 4.312574-.081.341873-.614371.426972-.8513.13583zm-3.278119-1.961222c-.458771-1.720105-.523362-4.391737-.147772-6.111746.172524-.790139.401531-1.056696.799306-.930447.658146.208889 1.050056 3.389437.690582 5.604444-.233206 1.436959-.420682 1.864976-.837989 1.91315-.321853.03715-.38273-.02027-.504127-.475401zm56.129399-1.663182c-.825754-.297272-1.808309-.945298-2.21261-1.459284l-.286936-.364778.713441-.722416c.392392-.397327.781277-.722415.864193-.722415.08291 0 .289663.14787.459444.328597.570205.606951 1.563362.927441 2.696679.870213.905053-.0457 1.044222-.09039 1.335262-.428747.406297-.472349.433469-1.204817.0586-1.579688-.146472-.146468-.620177-.363603-1.052678-.482518-3.242355-.89148-3.821942-1.197633-4.329029-2.286713-.918748-1.973218.02435-4.079742 2.14126-4.782872 1.007369-.334594 2.787764-.225002 3.78461.232964.802775.368809 1.759582 1.124632 1.759582 1.389979 0 .08819-.330419.486665-.73426.885492l-.734262.725139-.461556-.352047c-.683856-.5216-1.372618-.767938-2.147182-.767938-.831911 0-1.458372.295175-1.569946.739729-.205561.819018.288249 1.1812 2.319391 1.701135 1.50807.386036 2.344069.794699 2.884217 1.409894.587214.668797.758615 1.3005.687269 2.532953-.101799 1.758561-.918323 2.743127-2.648719 3.193837-1.073251.279548-2.657681.252359-3.526769-.06052zm11.677365.0187c-1.895136-.67884-2.925819-2.105348-3.298755-4.565622-.501555-3.308768.877425-6.284737 3.282296-7.083509 1.022642-.339667 2.808526-.222659 3.716489.243501 1.74797.897424 2.774328 2.971064 2.774328 5.605213 0 2.595271-.97311 4.563371-2.715495 5.492054-1.089455.580676-2.642874.708111-3.758863.308363zm2.288955-2.204394c.596608-.165712 1.367579-.97634 1.626931-1.710618.24412-.691159.245395-3.076166.0021-3.764707-.655116-1.85334-2.841751-2.478202-4.044607-1.155803-.736066.809219-1.071408 2.322887-.85428 3.856072.302821 2.138321 1.599747 3.238963 3.269943 2.775056zm9.915058 2.196489c-.399814-.142484-.888802-.378988-1.086631-.525565-.558-.413443-1.189176-1.309602-1.530094-2.172444-.294024-.744155-.313081-1.001218-.362908-4.894238l-.05262-4.108832h1.166481 1.166481l.00068 3.701345c.00034 2.16361.05993 3.914498.143242 4.214415.434562 1.564864 2.228224 2.207379 3.40289 1.218965.878177-.738943.929169-1.028633.932492-5.297553l.0034-3.837172h1.154545 1.15455v3.716758c0 2.044218-.0617 4.041528-.13687 4.438468-.30518 1.609152-1.21002 2.886002-2.431747 3.431498-.897336.400659-2.568037.454878-3.523581.114351zm37.333628.02533c-2.13514-.747021-3.38884-2.876373-3.39445-5.76534-.003-1.438165.19085-2.3374.74792-3.473309.57338-1.169149 1.39439-1.947381 2.48999-2.360277.63249-.238364.98149-.279389 1.9895-.233856 1.38116.06238 1.80556.231928 2.74255 1.095616.52168.480862.99275 1.13538.99275 1.379319 0 .04013-.42869.288837-.95263.552698l-.95265.47974-.41244-.469741c-1.05644-1.203226-3.02912-.90014-3.78502.581542-.45688.89556-.62298 2.050859-.45288 3.149852.26301 1.69914 1.00796 2.709677 2.15636 2.925118.8422.157995 1.42916-.05117 2.10513-.750172l.62619-.647527.90043.557117c.49522.306412.90107.592478.90188.635698.00068.04322-.1798.352244-.40135.686719-.48748.735968-1.43757 1.44316-2.27907 1.696417-.81774.246101-2.25959.227205-3.02221-.03961zm21.36848.03896c-2.18123-.712491-3.43977-2.838502-3.43977-5.810731 0-2.067335.4792-3.547451 1.51085-4.666656.89481-.970771 1.70506-1.326394 3.17527-1.39365 1.56594-.07164 2.48893.242148 3.43768 1.168699 1.15955 1.132415 1.65179 2.555613 1.65429 4.783049.004 2.852113-.9337 4.732725-2.81687 5.65407-.90295.441773-2.59159.568954-3.52145.265217zm2.82588-2.593877c1.4651-.965026 1.7226-4.469299.45092-6.136554-.67396-.883599-2.2661-1.108492-3.19002-.450598-.24936.177554-.5904.637795-.79343 1.070762-.31358.668674-.35605.929668-.3556 2.185559.00034 1.20135.0503 1.536528.31659 2.125946.37653.83352.76441 1.225496 1.46977 1.485286.66667.245549 1.46496.139047 2.10177-.280401zm9.4017 2.594751c-1.18428-.387041-2.05204-1.242148-2.61477-2.576675-.34989-.82977-.35287-.867534-.39535-5.012814l-.0429-4.176746h1.08443 1.08444l.045 3.837171c.0434 3.700074.0564 3.860194.36228 4.481415.4466.906844.97499 1.247766 1.94221 1.253093.92988.0051 1.37867-.271847 1.8833-1.162307.33731-.5952.33985-.625256.38117-4.504285l.0417-3.905087h1.1469 1.14691l-.005 3.36177c-.003 1.848975-.0624 3.810332-.13362 4.358575-.24561 1.891686-1.11399 3.220569-2.51085 3.842391-.84051.374157-2.57783.477632-3.41665.203497zm-61.30594-5.857668v-5.908567l1.05268.0017 1.05268.0017 2.17326 3.4012c1.1953 1.870659 2.22846 3.520173 2.2959 3.665587.0674.145415.15913.264428.20374.264479.0447.000048.0639-1.650275.043-3.667386l-.0382-3.667477h1.15881 1.15881v5.908567 5.908567l-1.05268-.001-1.05268-.001-2.03743-3.202712c-1.12059-1.761492-2.20502-3.487693-2.40987-3.836002l-.37242-.633288-.00085 3.837172-.00085 3.837173h-1.08663-1.08663zm12.49629.00068v-5.93812l2.6147.05857c2.29616.05143 2.70907.09545 3.38917.361281 2.12901.832163 3.22245 2.9495 3.0598 5.925013-.13868 2.537274-1.31205 4.270258-3.45633 5.104811-.67975.264558-1.10975.31381-3.19638.366119l-2.41096.06044zm5.11046 3.22065c1.20989-.624512 1.7696-1.883801 1.64503-3.701158-.15009-2.189875-1.17681-3.119703-3.44476-3.119703h-1.00164v3.616504 3.616505l1.12059-.06149c.78227-.04292 1.28972-.148797 1.68078-.350652zm18.9313-3.221391v-5.908544h1.15454 1.15455v4.754019 4.754019h2.7845 2.78449v1.154548 1.154548h-3.93904-3.93904zm34.36476.08064v-5.853375h2.43062c3.04089 0 3.81866.191939 4.94348 1.219963.91991.840743 1.40969 1.88357 1.61885 3.446825.4029 3.011248-.7751 5.495019-3.11791 6.574009-.73942.340551-.91838.362753-3.32824.412927l-2.5468.05302zm5.10739 3.212054c.57169-.302151 1.20925-1.053541 1.42977-1.68505.26612-.762029.23733-2.562308-.053-3.314446-.28234-.731462-.93036-1.385322-1.59432-1.608673-.26147-.08796-.9491-.1969-1.52806-.242089l-1.05269-.08217-.00003 3.653563-.00002 3.653561 1.18853-.07602c.70171-.04488 1.3611-.167219 1.60982-.298677z" fill="#fff" stroke-width=".101872" />
</svg>
